# xmcd
#
# Track frame offsets:
#	150
#	32321
#	85986
#	116573
#	144289
#	191914
#
# Disc length: 2859 seconds
# Revision: 0
# Processed by: cddbd v1.5.2PL0 Copyright (c) Steve Scherf et al.
# Submitted via: dBpowerAMP V12.0
#
DISCID=470b2906
DTITLE=Johnny Winter - Remembrance Volume 2 [Disc 3]
DYEAR=2017
DGENRE=Blues
TTITLE0=Mother In Law Blues
TTITLE1=I Got My Brand On You
TTITLE2=It Serves You Right To Suffer
TTITLE3=Rock Me Baby
TTITLE4=Third Degree
TTITLE5=Closing Jam
EXTD=
EXTT0=
EXTT1=
EXTT2=
EXTT3=
EXTT4=
EXTT5=
PLAYORDER=
